<?xml version="1.0" encoding="UTF-8"?>
<svg width="187px" height="187px" viewBox="0 0 187 187" version="1.1" xmlns="http://www.w3.org/2000/svg" xmlns:xlink="http://www.w3.org/1999/xlink">
    <!-- Generator: Sketch 60.1 (88133) - https://sketch.com -->
    <title>Blue</title>
    <desc>Created with Sketch.</desc>
    <g id="Finals" stroke="none" stroke-width="1" fill="none" fill-rule="evenodd">
        <g id="Quiz-Pkmn-Bg" transform="translate(-897.000000, -249.000000)">
            <g id="Blue" transform="translate(897.000000, 248.000000)">
                <g id="blob-shape-(2)" transform="translate(0.000000, 0.812367)" fill="#FFFFFF">
                    <circle id="Oval" cx="93.5" cy="93.6876333" r="93.5"></circle>
                </g>
                <path d="M142.702505,63.7694222 C153.048897,80.3926915 156.000834,99.2655069 149.717008,111.681833 C143.403955,124.127374 127.85514,130.08721 112.277097,138.617956 C96.6698273,147.148703 81.0333306,158.191929 66.2151926,155.621019 C51.3678274,153.079324 37.338821,136.923493 35.4098326,120.300224 C33.4516171,103.676954 38.5006023,85.4014488 50.775983,68.3399563 C63.0221365,51.2784637 82.4362312,35.4309843 98.5111344,34.0870996 C114.586038,32.7432149 132.326885,47.146153 142.702505,63.7694222 Z" id="Path" fill="#8DCBE2" fill-rule="nonzero"></path>
                <path d="M56.4328358,93.8123667 L129.780384,93.9189765 C127.018523,118.297086 114.793932,130.486141 93.1066098,130.486141 C71.4192875,130.486141 59.1946962,118.261549 56.4328358,93.8123667 Z" id="Path-2" fill="#F8F8F8"></path>
                <circle id="Oval" stroke="#2A2929" stroke-width="5" cx="93.1066098" cy="93.8123667" r="36.673774"></circle>
                <circle id="Oval" stroke="#2A2929" stroke-width="5" fill="#FFFFFF" cx="93.1066098" cy="93.8123667" r="10.2345416"></circle>
                <line x1="82.7654584" y1="93.9189765" x2="56.326226" y2="93.9189765" id="Line-2" stroke="#2A2929" stroke-width="4" stroke-linecap="square"></line>
                <line x1="129.780384" y1="93.9189765" x2="103.341151" y2="93.9189765" id="Line-2-Copy" stroke="#2A2929" stroke-width="4" stroke-linecap="square"></line>
            </g>
        </g>
    </g>
</svg>