<?xml version="1.0" encoding="UTF-8"?>
<svg width="187px" height="187px" viewBox="0 0 187 187" version="1.1" xmlns="http://www.w3.org/2000/svg" xmlns:xlink="http://www.w3.org/1999/xlink">
    <!-- Generator: Sketch 60.1 (88133) - https://sketch.com -->
    <title>Group Copy</title>
    <desc>Created with Sketch.</desc>
    <g id="Finals" stroke="none" stroke-width="1" fill="none" fill-rule="evenodd">
        <g id="Quiz-Pkmn-Bg" transform="translate(-627.000000, -249.000000)">
            <g id="Group-Copy" transform="translate(627.000000, 248.000000)">
                <g id="blob-shape-(2)" transform="translate(0.000000, 0.812367)">
                    <circle id="Oval" fill="#FFFFFF" cx="93.5" cy="93.6876333" r="93.5"></circle>
                    <path d="M141.702505,61.9570555 C152.048897,78.5803248 155.000834,97.4531401 148.717008,109.869466 C142.403955,122.315007 126.85514,128.274843 111.277097,136.80559 C95.6698273,145.336336 80.0333306,156.379562 65.2151926,153.808652 C50.3678274,151.266957 36.338821,135.111126 34.4098326,118.487857 C32.4516171,101.864588 37.5006023,83.5890821 49.775983,66.5275895 C62.0221365,49.466097 81.4362312,33.6186175 97.5111344,32.2747329 C113.586038,30.9308482 131.326885,45.3337862 141.702505,61.9570555 Z" id="Path" fill="#E8B97B" fill-rule="nonzero"></path>
                </g>
                <path d="M56.4328358,93.8123667 L129.780384,93.9189765 C127.018523,118.297086 114.793932,130.486141 93.1066098,130.486141 C71.4192875,130.486141 59.1946962,118.261549 56.4328358,93.8123667 Z" id="Path-2" fill="#F8F8F8"></path>
                <circle id="Oval" stroke="#2A2929" stroke-width="5" cx="93.1066098" cy="93.8123667" r="36.673774"></circle>
                <circle id="Oval" stroke="#2A2929" stroke-width="5" fill="#FFFFFF" cx="93.1066098" cy="93.8123667" r="10.2345416"></circle>
                <line x1="93.1066098" y1="90.4008529" x2="93.1066098" y2="97.4371002" id="Line" stroke-linecap="round"></line>
                <line x1="93.1066098" y1="90.4008529" x2="93.1066098" y2="97.4371002" id="Line" stroke-linecap="round" transform="translate(93.106610, 93.918977) rotate(90.000000) translate(-93.106610, -93.918977) "></line>
                <line x1="82.7654584" y1="93.9189765" x2="56.326226" y2="93.9189765" id="Line-2" stroke="#2A2929" stroke-width="4" stroke-linecap="square"></line>
                <line x1="129.780384" y1="93.9189765" x2="103.341151" y2="93.9189765" id="Line-2-Copy" stroke="#2A2929" stroke-width="4" stroke-linecap="square"></line>
            </g>
        </g>
    </g>
</svg>