<?xml version="1.0" encoding="UTF-8"?>
<svg width="187px" height="187px" viewBox="0 0 187 187" version="1.1" xmlns="http://www.w3.org/2000/svg" xmlns:xlink="http://www.w3.org/1999/xlink">
    <!-- Generator: Sketch 60.1 (88133) - https://sketch.com -->
    <title>Purple</title>
    <desc>Created with Sketch.</desc>
    <g id="Finals" stroke="none" stroke-width="1" fill="none" fill-rule="evenodd">
        <g id="Quiz-Pkmn-Bg" transform="translate(-764.000000, -552.000000)">
            <g id="Purple" transform="translate(764.000000, 551.000000)">
                <g id="blob-shape-(2)" transform="translate(0.000000, 0.812367)" fill="#FFFFFF">
                    <circle id="Oval" cx="93.5" cy="93.6876333" r="93.5"></circle>
                </g>
                <path d="M141.702505,62.7694222 C152.048897,79.3926915 155.000834,98.2655069 148.717008,110.681833 C142.403955,123.127374 126.85514,129.08721 111.277097,137.617956 C95.6698273,146.148703 80.0333306,157.191929 65.2151926,154.621019 C50.3678274,152.079324 36.338821,135.923493 34.4098326,119.300224 C32.4516171,102.676954 37.5006023,84.4014488 49.775983,67.3399563 C62.0221365,50.2784637 81.4362312,34.4309843 97.5111344,33.0870996 C113.586038,31.7432149 131.326885,46.146153 141.702505,62.7694222 Z" id="Path" fill="#BF85CB" fill-rule="nonzero"></path>
                <path d="M56.4328358,93.8123667 L129.780384,93.9189765 C127.018523,118.297086 114.793932,130.486141 93.1066098,130.486141 C71.4192875,130.486141 59.1946962,118.261549 56.4328358,93.8123667 Z" id="Path-2" fill="#F8F8F8"></path>
                <circle id="Oval" stroke="#2A2929" stroke-width="5" cx="93.1066098" cy="93.8123667" r="36.673774"></circle>
                <circle id="Oval" stroke="#2A2929" stroke-width="5" fill="#FFFFFF" cx="93.1066098" cy="93.8123667" r="10.2345416"></circle>
                <line x1="82.7654584" y1="93.9189765" x2="56.326226" y2="93.9189765" id="Line-2" stroke="#2A2929" stroke-width="4" stroke-linecap="square"></line>
                <line x1="129.780384" y1="93.9189765" x2="103.341151" y2="93.9189765" id="Line-2-Copy" stroke="#2A2929" stroke-width="4" stroke-linecap="square"></line>
            </g>
        </g>
    </g>
</svg>